<svg width="98" height="75" viewBox="0 0 98 75" fill="none" xmlns="http://www.w3.org/2000/svg">
<path d="M1.5 28C1.5 13.3645 13.3645 1.5 28 1.5H70C84.6355 1.5 96.5 13.3645 96.5 28V47C96.5 61.6355 84.6355 73.5 70 73.5H28C13.3645 73.5 1.5 61.6355 1.5 47V28Z" stroke="#898989" stroke-width="3" stroke-linejoin="round"/>
<path d="M2.57141 16.3169H95.8571M2.57141 30.0574H95.8571" stroke="#898989" stroke-width="3"/>
<rect x="12.3572" y="43.0078" width="23" height="17.6107" rx="8.80534" stroke="#898989" stroke-width="3"/>
<path d="M84.5001 51.8129C84.5001 56.9949 80.308 61.1908 75.1429 61.1908C69.9778 61.1908 65.7858 56.9949 65.7858 51.8129C65.7858 46.631 69.9778 42.4351 75.1429 42.4351C80.308 42.4351 84.5001 46.631 84.5001 51.8129Z" stroke="#898989" stroke-width="3"/>
</svg>
