<svg width="111" height="89" viewBox="0 0 111 89" fill="none" xmlns="http://www.w3.org/2000/svg">
<rect x="0.185067" y="2.13763" width="11.845" height="22.4956" rx="5.92248" transform="matrix(0.757995 0.65226 -0.634617 0.772827 18.5813 32.2199)" stroke="#898989" stroke-width="3"/>
<rect x="0.185067" y="2.13763" width="11.845" height="27.9572" rx="5.92248" transform="matrix(0.757995 0.65226 -0.634617 0.772827 32.5161 36.9718)" stroke="#898989" stroke-width="3"/>
<rect x="0.265414" y="2.12876" width="11.8321" height="30.2536" rx="5.91605" transform="matrix(0.782143 0.623099 -0.6052 0.796073 43.7671 42.8825)" stroke="#898989" stroke-width="3"/>
<rect x="0.265414" y="2.12876" width="11.8321" height="19.0826" rx="5.91605" transform="matrix(0.782143 0.623099 -0.6052 0.796073 48.3456 58.1706)" stroke="#898989" stroke-width="3"/>
<path d="M51.2781 75.207L66.0893 86.2197C69.6421 87.4434 76.4709 87.3492 75.3635 77.1836M75.3635 77.1836L67.1966 70.9713M75.3635 77.1836C79.3777 79.4897 87.4062 81.2216 87.4062 69.7006M87.4062 69.7006L73.0103 58.9702M87.4062 69.7006C90.636 69.7006 96.8466 67.6675 95.8499 59.535M95.8499 59.535L78.9625 47.5339M95.8499 59.535C99.7719 59.8644 106.868 58.4619 103.878 50.2165L95.3545 43.863M95.3545 43.863L67.8887 23.3905L64.4282 21.1315H55.4308L38.2665 29.3205C34.2523 30.9677 25.7809 31.3254 24.0091 19.5784L33.9754 14.1966M95.3545 43.863L109 34.5445L89.4825 1.78857L76.4709 7.15376L56.9534 1.78857L33.9754 14.1966M33.9754 14.1966L19.8564 6.02425L2 35.674L10.3053 41.6039" stroke="#898989" stroke-width="3" stroke-linecap="round" stroke-linejoin="round"/>
</svg>
