<svg width="84" height="90" viewBox="0 0 84 90" fill="none" xmlns="http://www.w3.org/2000/svg">
<path d="M42.2373 81.9941C38.5138 88.9606 33.3491 85.2372 32.3882 81.9941V56.2903M42.2373 81.9941V58.3322M42.2373 81.9941C43.5585 85.4774 48.9635 88.8405 51.606 81.9941V56.2903M51.606 56.2903V36.3518M51.606 56.2903H56.5305C57.4914 56.3304 59.0529 55.3294 59.0529 50.6451V33.4692C58.9728 31.7876 57.8278 28.2323 53.8881 27.4636H30.2262C28.7448 27.6237 25.734 29.0491 25.5418 33.4692V52.0864C26.2625 56.2903 28.5446 56.2903 32.3882 56.2903M32.3882 36.3518V56.2903M25.4217 35.6312H6.68434C5.32308 35.8314 2.48045 37.1926 2 41.0362V59.4132C2.28026 60.3741 3.82569 62.1037 7.76534 61.335M7.76534 61.335V43.5585M7.76534 61.335V84.8768C8.80631 87.239 12.0413 90.6902 16.6536 85.5975M16.6536 85.5975V63.7372M16.6536 85.5975C18.215 87.7595 22.1066 90.7863 25.1815 85.5975L25.5418 48.0026M59.173 35.6312H77.55C78.9914 35.8314 81.9461 37.1926 82.2344 41.0362V59.4132C81.6338 61.0948 80.5288 62.1998 76.5891 61.335V43.5585L76.3489 84.5165C76.2288 87.9997 69.8629 91.0025 67.9411 84.8768M67.9411 84.8768V63.7372M67.9411 84.8768C66.9802 87.6394 61.9356 91.3628 58.8127 84.8768L59.173 53.6479M52.687 12.5698C52.687 18.4073 47.9547 23.1396 42.1172 23.1396C36.2796 23.1396 31.5474 18.4073 31.5474 12.5698C31.5474 6.73226 36.2796 2 42.1172 2C47.9547 2 52.687 6.73226 52.687 12.5698ZM77.1897 20.6173C77.1897 25.8578 72.9414 30.1061 67.7009 30.1061C62.4604 30.1061 58.2121 25.8578 58.2121 20.6173C58.2121 15.3767 62.4604 11.1285 67.7009 11.1285C72.9414 11.1285 77.1897 15.3767 77.1897 20.6173ZM26.0223 20.6173C26.0223 25.8578 21.774 30.1061 16.5335 30.1061C11.293 30.1061 7.04468 25.8578 7.04468 20.6173C7.04468 15.3767 11.293 11.1285 16.5335 11.1285C21.774 11.1285 26.0223 15.3767 26.0223 20.6173Z" stroke="#898989" stroke-width="3" stroke-linecap="round" stroke-linejoin="round"/>
</svg>
