<svg width="38" height="41" viewBox="0 0 38 41" fill="none" xmlns="http://www.w3.org/2000/svg">
<path d="M2.55178 5.35611C6.85387 0.467374 10.3738 0.711807 14.0403 1.32288C18.318 2.03581 20.029 4.62281 20.3957 8.28935C20.1024 12.8848 15.9958 14.8484 14.0403 14.6447C10.6182 12.787 7.56274 16.2336 8.54049 18.5557C10.1049 23.8355 12.4922 26.174 14.0403 27.8443C19.4179 33.0997 22.5141 30.8998 23.8178 28.4554C25.48 24.9355 30.7028 25.5222 33.1064 26.2555C37.9951 28.4554 37.7507 34.2819 34.9397 36.8885C29.5621 41.875 21.6179 40.3513 18.318 38.9662C6.58499 32.733 -2.82583 11.467 2.55178 5.35611Z" stroke="white" stroke-linecap="round" stroke-linejoin="round"/>
</svg>
